# xmcd
#
# Track frame offsets: 
#        225
#        13037
#        38315
#        57867
#        79865
#        108015
#        137558
#        153026
#        175099
#        200744
#        214094
#        241781
#
# Disc length: 3484 seconds
#
# Revision: 0
# Processed by: cddbd v1.5.2PL0 Copyright (c) Steve Scherf et al.
# Submitted via: ExactAudioCopy v0.99pb4
#
DISCID=8b0d990c
DTITLE=Bluebone - Devil Keep Chewin'
DYEAR=2009
DGENRE=Blues
TTITLE0=Devil Keep Chewin'
TTITLE1=40 Years In Bars
TTITLE2=Some Buddy Like You
TTITLE3=Kiddieville
TTITLE4=Drownin'
TTITLE5=Early In The Morning
TTITLE6=Happy Damn Birthday
TTITLE7=357
TTITLE8=No Is The Answer
TTITLE9=Happy Cat
TTITLE10=Sweet Blue Lady
TTITLE11=Party Tonight
EXTD=
EXTT0=
EXTT1=
EXTT2=
EXTT3=
EXTT4=
EXTT5=
EXTT6=
EXTT7=
EXTT8=
EXTT9=
EXTT10=
EXTT11=
PLAYORDER=
